<svg width="481" height="481" viewBox="0 0 481 481" fill="none" xmlns="http://www.w3.org/2000/svg">
<g clip-path="url(#clip0_1_2)">
<rect width="481" height="481" fill="white"/>
<path d="M241.5 18L429.861 127V345L241.5 454L53.1395 345V127L241.5 18Z" fill="url(#paint0_linear_1_2)"/>
<path d="M52 127L241 235.173V454L52 345.331V127Z" fill="url(#paint1_linear_1_2)"/>
<path d="M52 127L241 235.173V454L52 345.331V127Z" fill="url(#paint2_linear_1_2)"/>
<path d="M53 127.679L241.181 18.0865L430.69 127.5L242.08 236.844L53 127.679Z" fill="url(#paint3_linear_1_2)"/>
<path d="M242 458L270.868 408L213.133 408L242 458ZM242 -10L237 -10L237 413L242 413L247 413L247 -10L242 -10Z" fill="white"/>
<path d="M432.836 127L375.101 127L403.968 177L432.836 127ZM31 359L33.5 363.33L396.365 153.83L393.865 149.5L391.365 145.17L28.5 354.67L31 359Z" fill="white"/>
<path d="M49 124L77.9361 173.96L106.735 123.921L49 124ZM433 345L435.494 340.666L90.496 142.113L88.002 146.446L85.5079 150.78L430.506 349.334L433 345Z" fill="white"/>
<path d="M242.024 269L203 203L242.024 216.5L280.5 203L242.024 269Z" fill="white"/>
<path d="M213.034 219.737L289.704 218.941L258.501 245.987L250.954 286.058L213.034 219.737Z" fill="white"/>
<path d="M270.192 219.263L232.546 286.058L224.726 245.513L193.796 218.942L270.192 219.263Z" fill="white"/>
</g>
<defs>
<linearGradient id="paint0_linear_1_2" x1="58.9378" y1="344" x2="409.725" y2="138.424" gradientUnits="userSpaceOnUse">
<stop stop-color="#F55252"/>
<stop offset="0.326923" stop-color="#D178AF"/>
<stop offset="1" stop-color="#D43F3F"/>
</linearGradient>
<linearGradient id="paint1_linear_1_2" x1="44.5395" y1="250.059" x2="250.817" y2="331.767" gradientUnits="userSpaceOnUse">
<stop stop-color="#D47575"/>
<stop offset="0.576923" stop-color="#DF5A5A"/>
<stop offset="0.971154" stop-color="#DF3636"/>
</linearGradient>
<linearGradient id="paint2_linear_1_2" x1="52" y1="238.15" x2="240.997" y2="249.118" gradientUnits="userSpaceOnUse">
<stop stop-color="#D47575"/>
<stop offset="0.576923" stop-color="#D56161"/>
<stop offset="1" stop-color="#C66161"/>
</linearGradient>
<linearGradient id="paint3_linear_1_2" x1="242" y1="33.5" x2="242" y2="219" gradientUnits="userSpaceOnUse">
<stop stop-color="#DF5757"/>
<stop offset="0.658654" stop-color="#D87D7D"/>
</linearGradient>
<clipPath id="clip0_1_2">
<rect width="481" height="481" fill="white"/>
</clipPath>
</defs>
</svg>
