<?xml version="1.0" encoding="UTF-8" standalone="no"?>
<svg
   fill="none"
   viewBox="0 0 128 128"
   version="1.1"
   id="svg1"
   sodipodi:docname="favicon.svg"
   xml:space="preserve"
   inkscape:version="1.4 (e7c3feb1, 2024-10-09)"
   xmlns:inkscape="http://www.inkscape.org/namespaces/inkscape"
   xmlns:sodipodi="http://sodipodi.sourceforge.net/DTD/sodipodi-0.dtd"
   xmlns="http://www.w3.org/2000/svg"
   xmlns:svg="http://www.w3.org/2000/svg"><defs
     id="defs1" /><sodipodi:namedview
     id="namedview1"
     pagecolor="#ffffff"
     bordercolor="#000000"
     borderopacity="0.25"
     inkscape:showpageshadow="2"
     inkscape:pageopacity="0.0"
     inkscape:pagecheckerboard="0"
     inkscape:deskcolor="#d1d1d1"
     inkscape:zoom="2.298097"
     inkscape:cx="72.886391"
     inkscape:cy="96.601665"
     inkscape:window-width="1424"
     inkscape:window-height="895"
     inkscape:window-x="48"
     inkscape:window-y="33"
     inkscape:window-maximized="1"
     inkscape:current-layer="svg1" /><style
     id="style1">
        path { fill: #000; }
        @media (prefers-color-scheme: dark) {
            path { fill: #FFF; }
        }
    </style><path
     style="fill:#ff0000"
     d="m 59.3364,122.20419 c -1.10604,-2.64713 -1.421365,-2.83065 -4.863407,-2.83065 -3.680684,0 -3.680684,0 -3.680684,-6.87446 0,-6.87445 0,-6.87445 -4.448174,-6.87445 -4.448174,0 -4.448174,0 -4.448174,7.68321 0,7.68321 0,7.68321 -5.162607,7.68321 -6.030188,0 -6.41536,-0.55479 -5.626316,-8.10395 0.646063,-6.1812 -0.715065,-7.60723 -6.514706,-6.82535 -2.270666,0.30612 -4.40144,0.71841 -4.735053,0.91622 -0.333614,0.1978 -0.60657,3.43167 -0.60657,7.18636 0,6.82672 0,6.82672 -3.965725,6.82672 -3.965726,0 -3.965726,0 -4.476245,-7.8854 -0.8130887,-12.55884 -0.787277,-13.986233 0.379825,-21.003833 1.000228,-6.01421 0.974604,-6.92325 -0.268635,-9.53035 -1.7418557,-3.65271 -1.7325837,-5.60522 0.041,-8.63371 1.403225,-2.39607 1.396309,-2.43198 -0.808759,-4.19896 -3.0479827,-2.44243 -2.7948967,-3.5273 1.06536,-4.56676 3.363394,-0.90567 11.632112,0.25807 12.565597,1.76848 0.228136,0.36913 -0.890187,1.4411 -2.485163,2.38216 -2.383035,1.40603 -2.726336,1.92022 -1.925941,2.88464 2.608356,3.14287 8.756932,4.47611 11.447752,2.48229 1.387704,-1.02825 2.442465,-5.71034 3.370587,-14.96204 0.507087,-5.05475 0.507087,-5.05475 -6.811904,-5.05475 -7.318991,0 -7.318991,0 -7.318991,-3.52246 0,-3.52247 0,-3.52247 5.064711,-3.99542 6.389492,-0.59666 7.398379,-0.9978 8.719922,-3.46713 1.560878,-2.916524 -0.189238,-4.259137 -6.973221,-5.349551 -5.035296,-0.809341 -6.020392,-1.293892 -9.795845,-4.818398 -3.072973,-2.868719 -4.842861,-3.918568 -6.606115,-3.918568 -1.3246987,0 -2.9842217,-0.220909 -3.6878287,-0.490908 -1.384957,-0.531458 -1.781102,-2.744128 -0.491294,-2.744128 1.075296,0 3.255805,-4.369443 3.255805,-6.524192 0,-1.893146 -0.146561,-1.895631 7.2788297,0.12342 4.774425,1.298222 28.586719,1.30316 43.268605,0.009 20.556064,-1.811988 42.830904,-7.279776 56.878594,-13.9619496 2.81492,-1.338991 5.33675,-2.215807 5.60407,-1.94848 0.26733,0.267327 -0.13109,1.780207 -0.88537,3.361955 -1.31099,2.7491636 -1.29955,3.0383856 0.25943,6.5627236 2.78377,6.293181 2.25156,7.043749 -6.19064,8.730549 -2.66276,0.532034 -5.17824,2.546741 -7.94931,6.366772 -1.40126,1.931705 -2.59065,2.393106 -8.89634,3.451168 -5.96457,1.000822 -7.69726,1.632344 -9.59624,3.497579 -2.31741,2.27623 -2.31741,2.27623 -0.52066,4.072975 1.65534,1.655335 2.41059,1.774071 9.59624,1.508647 7.79949,-0.288099 7.79949,-0.288099 7.72406,3.225246 -0.0433,2.01518 -0.54385,3.80284 -1.17393,4.19225 -0.60418,0.3734 -3.84571,0.90328 -7.2034,1.17752 -9.85826,0.80514 -9.7453,0.75087 -9.73768,4.67901 0.0114,5.85706 1.6191,17.82364 2.54446,18.93863 0.90669,1.0925 6.02529,1.44511 8.301,0.57184 1.97432,-0.75762 1.52363,-2.46 -1.1565,-4.36842 -2.94998,-2.10057 -2.58635,-2.90248 1.85897,-4.09948 2.55439,-0.68783 4.45455,-0.67888 7.64906,0.036 2.33771,0.52316 4.25038,1.17813 4.25038,1.45551 0,0.27737 -0.90057,1.44431 -2.00127,2.59319 -1.8232,1.90301 -1.92014,2.35327 -1.08938,5.06011 0.71494,2.32952 0.66009,3.89667 -0.254,7.2561 -0.90585,3.32918 -0.99233,5.63776 -0.38772,10.35057 0.42799,3.33613 0.69003,10.978903 0.5823,16.983943 -0.21461,11.96262 -0.76855,13.37579 -4.8661,12.41393 -3.23053,-0.75833 -3.47523,-1.30898 -3.59702,-8.09457 -0.11381,-6.34126 -0.11381,-6.34126 -4.86231,-6.58674 -4.74849,-0.24547 -4.74849,-0.24547 -4.28874,2.42628 1.22551,7.12192 1.47097,11.80475 0.64551,12.31491 -1.41355,0.87362 -8.69392,1.52641 -10.88642,0.97613 -1.83683,-0.46102 -2.07468,-1.01575 -2.55891,-5.96815 -0.29361,-3.00294 -0.69861,-6.0575 -0.9,-6.7879 -0.74587,-2.70526 -7.11829,-2.64988 -7.98134,0.0694 -0.24635,0.77616 -0.0944,3.90761 0.33772,6.95876 0.96374,6.80523 0.4271,7.6444 -4.888514,7.6444 -3.731447,0 -3.994784,-0.14569 -5.116637,-2.83066 z M 47.928159,98.816297 c 2.360596,-0.98632 2.818453,-1.63785 3.26798,-4.65036 0.287523,-1.92684 0.40527,-5.14108 0.261659,-7.14276 -0.261109,-3.63941 -0.261109,-3.63941 -4.709284,-3.63941 -4.448174,0 -4.448174,0 -4.680568,6.98866 -0.18505,5.56493 0.03267,7.25374 1.068717,8.28978 1.575115,1.575123 1.403696,1.569613 4.791496,0.15409 z m 29.169051,-0.67268 c 0.25049,-1.00084 0.34841,-5.09519 0.2176,-9.09854 -0.23783,-7.27883 -0.23783,-7.27883 -4.48382,-7.52329 -4.245983,-0.24445 -4.245983,-0.24445 -4.241473,6.06569 0.0025,3.47059 0.383533,7.67493 0.846773,9.343 0.79091,2.84792 1.03625,3.03284 4.02388,3.03284 2.62533,0 3.26124,-0.31816 3.63704,-1.8197 z m 22.19218,0.25536 c 0.46047,-0.8604 0.83721,-4.1598 0.83721,-7.332 0,-8.01787 -0.61122,-8.89635 -6.1898,-8.89635 -4.51538,0 -4.51538,0 -3.92798,7.05156 0.82071,9.85261 1.25225,10.74113 5.21676,10.74113 2.36231,0 3.45086,-0.41903 4.06381,-1.56434 z m -68.880033,-1.4685 c 0.462561,-1.22325 1.05077,-4.81535 1.307132,-7.98244 0.466112,-5.75835 0.466112,-5.75835 -2.562608,-6.25898 -1.665796,-0.27535 -4.575472,-0.50464 -6.465946,-0.50953 -3.437226,-0.009 -3.437226,-0.009 -3.437226,7.63412 0,8.77205 0.355242,9.27547 6.574143,9.31632 3.350784,0.022 3.831711,-0.20872 4.584505,-2.19949 z m 30.031216,-5.56022 c 0.09136,-4.06205 -0.8676,-7.8902 -1.662432,-6.6364 -0.810158,1.27798 -0.904427,7.53431 -0.155704,10.3336 0.490132,1.83248 0.574702,1.86234 1.145252,0.40438 0.338822,-0.86581 0.64162,-2.71153 0.672884,-4.10158 z m -9.924941,-16.92399 c 0.278756,-0.72643 -0.318639,-2.10581 -1.419518,-3.27764 -1.605139,-1.70859 -1.715414,-2.1406 -0.708888,-2.77712 0.65557,-0.41458 2.565733,-0.75935 4.244808,-0.76616 2.506508,-0.0102 3.190439,-0.37423 3.821588,-2.03428 0.749414,-1.97111 0.972383,-2.0219 8.876331,-2.0219 9.256787,0 9.834847,0.52893 5.074797,4.64354 -3.032882,2.62163 -3.032882,2.62163 -0.7637,4.65036 2.47914,2.21643 6.29199,2.68119 7.73472,0.94281 0.86518,-1.04248 2.48871,-13.3307 2.51785,-19.05714 0.014,-2.75474 0.014,-2.75474 -11.915183,-2.22641 -6.561057,0.29058 -14.889188,0.76201 -18.506958,1.04762 -6.577763,0.51928 -6.577763,0.51928 -7.076641,4.15899 -0.774645,5.65165 -0.588566,14.67533 0.338337,16.40727 1.07358,2.006 7.040438,2.24372 7.782457,0.31006 z m 2.906426,-29.14286 c 0.260183,-0.26018 0.01362,-1.80693 -0.547923,-3.437222 -0.856475,-2.486562 -1.441449,-3.005689 -3.63054,-3.221867 -2.871298,-0.283548 -6.538876,1.660221 -6.538876,3.46552 0,1.882859 3.366315,3.666629 6.919613,3.666629 1.828567,0 3.537544,-0.21287 3.797726,-0.47306 z M 74.6507,43.309435 c 1.98642,-0.752398 5.25693,-3.778033 5.25693,-4.863319 0,-1.312532 -4.14696,-2.479089 -6.81276,-1.916459 -3.21716,0.678995 -6.127381,3.3772 -6.127381,5.680978 0,2.724142 2.462401,3.076292 7.683211,1.0988 z M 64.885607,38.7667 c 1.154817,-3.009406 1.440561,-10.655677 0.50423,-13.492788 -0.768942,-2.329916 -1.392114,-2.951453 -2.95922,-2.951453 -3.21946,0 -6.971796,2.010655 -10.384363,5.564367 -3.19423,3.326345 -3.19423,3.326345 -0.40438,6.229238 5.046268,5.25074 12.067348,7.716245 13.243733,4.650636 z m -7.755852,-2.848685 c -2.03336,-0.701999 -3.613755,-2.839931 -2.743,-3.710685 0.658545,-0.658546 5.15394,1.503148 5.612847,2.69904 0.595345,1.551444 -0.345576,1.883126 -2.869847,1.011645 z m 4.204761,-3.028736 c -0.581104,-1.085801 -0.571323,-2.261348 0.03196,-3.841605 0.844082,-2.211003 0.903241,-2.230803 2.039859,-0.682729 0.643811,0.876871 0.980565,2.089447 0.748341,2.694613 -0.232224,0.605166 -0.422225,1.616448 -0.422225,2.247294 0,1.65646 -1.420316,1.409129 -2.397937,-0.417573 z m -7.307171,-3.505664 c 0,-1.553719 1.472863,-2.747252 4.250509,-3.444397 2.399773,-0.602305 2.807562,0.15688 1.208614,2.25009 -1.440667,1.886002 -5.459123,2.76513 -5.459123,1.194307 z"
     id="path2" /></svg>
